<mxfile host="app.diagrams.net" modified="2021-11-05T09:04:53.658Z" agent="5.0 (Windows NT 10.0; Win64; x64) AppleWebKit/537.36 (KHTML, like Gecko) Chrome/95.0.4638.54 Safari/537.36 Edg/95.0.1020.40" etag="_SWLlrNiFhmdQb1gU8bg" version="15.6.8" type="github">
  <diagram id="_98956hBXzSBnoxRIqcM" name="Page-1">
    <mxGraphModel dx="920" dy="513" grid="1" gridSize="10" guides="1" tooltips="1" connect="1" arrows="1" fold="1" page="1" pageScale="1" pageWidth="827" pageHeight="1169" math="0" shadow="0">
      <root>
        <mxCell id="0" />
        <mxCell id="1" parent="0" />
        <mxCell id="tfeWMHWeHRs0Ee3GljUW-4" value="" style="edgeStyle=orthogonalEdgeStyle;rounded=0;orthogonalLoop=1;jettySize=auto;html=1;" edge="1" parent="1" target="tfeWMHWeHRs0Ee3GljUW-3">
          <mxGeometry relative="1" as="geometry">
            <mxPoint x="240" y="120" as="sourcePoint" />
          </mxGeometry>
        </mxCell>
        <mxCell id="tfeWMHWeHRs0Ee3GljUW-6" value="" style="edgeStyle=orthogonalEdgeStyle;rounded=0;orthogonalLoop=1;jettySize=auto;html=1;" edge="1" parent="1" source="tfeWMHWeHRs0Ee3GljUW-3" target="tfeWMHWeHRs0Ee3GljUW-5">
          <mxGeometry relative="1" as="geometry" />
        </mxCell>
        <mxCell id="tfeWMHWeHRs0Ee3GljUW-3" value="Eden区" style="rhombus;whiteSpace=wrap;html=1;" vertex="1" parent="1">
          <mxGeometry x="200" y="160" width="80" height="40" as="geometry" />
        </mxCell>
        <mxCell id="tfeWMHWeHRs0Ee3GljUW-8" value="" style="edgeStyle=orthogonalEdgeStyle;rounded=0;orthogonalLoop=1;jettySize=auto;html=1;" edge="1" parent="1" source="tfeWMHWeHRs0Ee3GljUW-5" target="tfeWMHWeHRs0Ee3GljUW-7">
          <mxGeometry relative="1" as="geometry" />
        </mxCell>
        <mxCell id="tfeWMHWeHRs0Ee3GljUW-5" value="Young GC" style="whiteSpace=wrap;html=1;" vertex="1" parent="1">
          <mxGeometry x="200" y="240" width="80" height="40" as="geometry" />
        </mxCell>
        <mxCell id="tfeWMHWeHRs0Ee3GljUW-25" value="" style="edgeStyle=orthogonalEdgeStyle;rounded=0;orthogonalLoop=1;jettySize=auto;html=1;" edge="1" parent="1" source="tfeWMHWeHRs0Ee3GljUW-7" target="tfeWMHWeHRs0Ee3GljUW-24">
          <mxGeometry relative="1" as="geometry" />
        </mxCell>
        <mxCell id="tfeWMHWeHRs0Ee3GljUW-7" value="Eden区" style="rhombus;whiteSpace=wrap;html=1;" vertex="1" parent="1">
          <mxGeometry x="200" y="320" width="80" height="40" as="geometry" />
        </mxCell>
        <mxCell id="tfeWMHWeHRs0Ee3GljUW-14" value="" style="edgeStyle=orthogonalEdgeStyle;rounded=0;orthogonalLoop=1;jettySize=auto;html=1;" edge="1" parent="1" source="tfeWMHWeHRs0Ee3GljUW-9" target="tfeWMHWeHRs0Ee3GljUW-13">
          <mxGeometry relative="1" as="geometry" />
        </mxCell>
        <mxCell id="tfeWMHWeHRs0Ee3GljUW-9" value="Full GC" style="whiteSpace=wrap;html=1;" vertex="1" parent="1">
          <mxGeometry x="200" y="480" width="80" height="40" as="geometry" />
        </mxCell>
        <mxCell id="tfeWMHWeHRs0Ee3GljUW-19" value="" style="edgeStyle=orthogonalEdgeStyle;rounded=0;orthogonalLoop=1;jettySize=auto;html=1;" edge="1" parent="1" source="tfeWMHWeHRs0Ee3GljUW-13">
          <mxGeometry relative="1" as="geometry">
            <mxPoint x="240" y="640" as="targetPoint" />
          </mxGeometry>
        </mxCell>
        <mxCell id="tfeWMHWeHRs0Ee3GljUW-13" value="老年区" style="rhombus;whiteSpace=wrap;html=1;" vertex="1" parent="1">
          <mxGeometry x="200" y="560" width="80" height="40" as="geometry" />
        </mxCell>
        <mxCell id="tfeWMHWeHRs0Ee3GljUW-20" value="&lt;span&gt;Eden区内存空间不足&lt;/span&gt;" style="text;html=1;align=center;verticalAlign=middle;resizable=0;points=[];autosize=1;strokeColor=none;fillColor=none;" vertex="1" parent="1">
          <mxGeometry x="240" y="210" width="130" height="20" as="geometry" />
        </mxCell>
        <mxCell id="tfeWMHWeHRs0Ee3GljUW-21" value="&lt;span style=&quot;color: rgb(0 , 0 , 0) ; font-family: &amp;#34;helvetica&amp;#34; ; font-size: 12px ; font-style: normal ; font-weight: 400 ; letter-spacing: normal ; text-align: center ; text-indent: 0px ; text-transform: none ; word-spacing: 0px ; background-color: rgb(248 , 249 , 250) ; display: inline ; float: none&quot;&gt;Eden区内仍旧存空间不足，分配到老年区&lt;/span&gt;" style="text;whiteSpace=wrap;html=1;" vertex="1" parent="1">
          <mxGeometry x="250" y="360" width="140" height="30" as="geometry" />
        </mxCell>
        <mxCell id="tfeWMHWeHRs0Ee3GljUW-22" value="&lt;span style=&quot;color: rgb(0 , 0 , 0) ; font-family: &amp;#34;helvetica&amp;#34; ; font-size: 12px ; font-style: normal ; font-weight: 400 ; letter-spacing: normal ; text-align: center ; text-indent: 0px ; text-transform: none ; word-spacing: 0px ; background-color: rgb(248 , 249 , 250) ; display: inline ; float: none&quot;&gt;老年区内仍旧存空间不足&lt;/span&gt;" style="text;whiteSpace=wrap;html=1;" vertex="1" parent="1">
          <mxGeometry x="250" y="600" width="140" height="30" as="geometry" />
        </mxCell>
        <mxCell id="tfeWMHWeHRs0Ee3GljUW-23" value="&lt;span&gt;老年区内存空间不足&lt;/span&gt;" style="text;html=1;align=center;verticalAlign=middle;resizable=0;points=[];autosize=1;strokeColor=none;fillColor=none;" vertex="1" parent="1">
          <mxGeometry x="245" y="450" width="120" height="20" as="geometry" />
        </mxCell>
        <mxCell id="tfeWMHWeHRs0Ee3GljUW-28" style="edgeStyle=orthogonalEdgeStyle;rounded=0;orthogonalLoop=1;jettySize=auto;html=1;" edge="1" parent="1" source="tfeWMHWeHRs0Ee3GljUW-24" target="tfeWMHWeHRs0Ee3GljUW-9">
          <mxGeometry relative="1" as="geometry" />
        </mxCell>
        <mxCell id="tfeWMHWeHRs0Ee3GljUW-24" value="老年区" style="rhombus;whiteSpace=wrap;html=1;" vertex="1" parent="1">
          <mxGeometry x="200" y="400" width="80" height="40" as="geometry" />
        </mxCell>
        <mxCell id="tfeWMHWeHRs0Ee3GljUW-29" value="分配到Eden区" style="text;html=1;align=center;verticalAlign=middle;resizable=0;points=[];autosize=1;strokeColor=none;fillColor=none;" vertex="1" parent="1">
          <mxGeometry x="250" y="130" width="90" height="20" as="geometry" />
        </mxCell>
        <mxCell id="tfeWMHWeHRs0Ee3GljUW-30" value="再次分配到Eden区" style="text;html=1;align=center;verticalAlign=middle;resizable=0;points=[];autosize=1;strokeColor=none;fillColor=none;" vertex="1" parent="1">
          <mxGeometry x="240" y="290" width="120" height="20" as="geometry" />
        </mxCell>
        <mxCell id="tfeWMHWeHRs0Ee3GljUW-31" value="再次分配到老年区" style="text;html=1;align=center;verticalAlign=middle;resizable=0;points=[];autosize=1;strokeColor=none;fillColor=none;" vertex="1" parent="1">
          <mxGeometry x="245" y="530" width="110" height="20" as="geometry" />
        </mxCell>
        <mxCell id="tfeWMHWeHRs0Ee3GljUW-34" value="新对象" style="ellipse;whiteSpace=wrap;html=1;aspect=fixed;" vertex="1" parent="1">
          <mxGeometry x="215" y="70" width="50" height="50" as="geometry" />
        </mxCell>
        <mxCell id="tfeWMHWeHRs0Ee3GljUW-35" value="OOM" style="ellipse;whiteSpace=wrap;html=1;aspect=fixed;" vertex="1" parent="1">
          <mxGeometry x="215" y="640" width="50" height="50" as="geometry" />
        </mxCell>
      </root>
    </mxGraphModel>
  </diagram>
</mxfile>
